# File created by Blade
# Date/Time:  Tue Sep 30 19:31:45 2014
#---------------------------------------------------------
:version 1.10
:name HOM
:units
  mass 1.0
  length 1.000000
  angle deg
:documentation
     Acclaim Skeleton File
:root
   axis xyz
   order TX TY TZ RX RY RZ
   position 0.000000 0.000000 0.000000
   orientation 0 0 0
:bonedata
   begin
      id 1
      name Spine_dum
      direction 0.000000 1.000000 0.000000
      length 3.241213
      axis 0.0 0.0 0.0 xyz
   end
   begin
      id 2
      name LeftUpLeg_dum
      direction 1.000000 0.000000 0.000000
      length 3.434019
      axis 0.0 0.0 0.0 xyz
   end
   begin
      id 3
      name RightUpLeg_dum
      direction -1.000000 0.000000 0.000000
      length 3.434019
      axis 0.0 0.0 0.0 xyz
   end
   begin
      id 4
      name Spine
      direction 0.000000 1.000000 0.000000
      length 0.000000
      axis 0.0 0.0 0.0 xyz
      dof rx ry rz
   end
   begin
      id 5
      name Spine_dum1
      direction 0.000000 1.000000 0.000000
      length 18.382958
      axis 0.0 0.0 0.0 xyz
   end
   begin
      id 6
      name Spine_dum2
      direction 0.000000 1.000000 0.000000
      length 12.828261
      axis 0.0 0.0 0.0 xyz
   end
   begin
      id 7
      name Spine_dum3
      direction 0.000000 1.000000 0.000000
      length 12.828261
      axis 0.0 0.0 0.0 xyz
   end
   begin
      id 8
      name Head
      direction 0.000000 1.000000 0.000000
      length 4.527550
      axis 0.0 0.0 0.0 xyz
      dof rx ry rz
   end
   begin
      id 9
      name LeftShoulder
      direction 1.000000 0.000000 0.000000
      length 7.748055
      axis 0.0 0.0 -90.0 xyz
      dof rx ry rz
   end
   begin
      id 10
      name LeftArm
      direction 1.000000 0.000000 0.000000
      length 10.635614
      axis 0.0 0.0 -90.0 xyz
      dof rx ry rz
   end
   begin
      id 11
      name LeftForeArm
      direction 1.000000 0.000000 0.000000
      length 8.346755
      axis 0.0 0.0 -90.0 xyz
      dof ry rz rx
   end
   begin
      id 12
      name LeftHand
      direction 0.000000 0.000000 0.000000
      length 0.000000
      axis 0.0 0.0 -90.0 xyz
      dof rx ry rz
   end
   begin
      id 13
      name LeftHand_dum1
      direction 0.000000 0.000000 0.000000
      length 0.000000
      axis 0.0 0.0 -90.0 xyz
   end
   begin
      id 14
      name LeftHand_dum2
      direction 1.000000 0.000000 0.000000
      length 3.937000
      axis 0.0 0.0 -90.0 xyz
   end
   begin
      id 15
      name LeftHandThumb1
      direction 0.000000 0.000000 1.000000
      length 3.937000
      axis 0.0 0.0 -90.0 xyz
      dof rx rz ry
   end
   begin
      id 16
      name RightShoulder
      direction -1.000000 0.000000 0.000000
      length 7.748055
      axis 0.0 0.0 90.0 xyz
      dof rx ry rz
   end
   begin
      id 17
      name RightArm
      direction -1.000000 0.000000 0.000000
      length 10.635614
      axis 0.0 0.0 90.0 xyz
      dof rx ry rz
   end
   begin
      id 18
      name RightForeArm
      direction -1.000000 0.000000 0.000000
      length 8.346755
      axis 0.0 0.0 90.0 xyz
      dof ry rz rx
   end
   begin
      id 19
      name RightHand
      direction 0.000000 0.000000 0.000000
      length 0.000000
      axis 0.0 0.0 90.0 xyz
      dof rx ry rz
   end
   begin
      id 20
      name RightHand_dum1
      direction 0.000000 0.000000 0.000000
      length 0.000000
      axis 0.0 0.0 90.0 xyz
   end
   begin
      id 21
      name RightHand_dum2
      direction -1.000000 0.000000 0.000000
      length 3.937000
      axis 0.0 0.0 90.0 xyz
   end
   begin
      id 22
      name RightHandThumb1
      direction 0.000000 0.000000 1.000000
      length 3.937000
      axis 0.0 0.0 90.0 xyz
      dof rx rz ry
   end
   begin
      id 23
      name LeftUpLeg
      direction 0.000000 -1.000000 0.000000
      length 15.713025
      axis 0.0 0.0 0.0 xyz
      dof rx ry rz
   end
   begin
      id 24
      name LeftLeg
      direction 0.000000 -1.000000 0.000000
      length 14.435119
      axis 0.0 0.0 0.0 xyz
      dof rx ry rz
   end
   begin
      id 25
      name LeftFoot
      direction 0.000000 -0.258819 0.965926
      length 4.938895
      axis 15.0 0.0 0.0 xyz
      dof rx ry rz
   end
   begin
      id 26
      name LeftToeBase
      direction 0.000000 0.000000 1.000000
      length 2.952750
      axis 0.0 0.0 0.0 xyz
      dof rx ry rz
   end
   begin
      id 27
      name RightUpLeg
      direction 0.000000 -1.000000 0.000000
      length 15.713025
      axis 0.0 0.0 0.0 xyz
      dof rx ry rz
   end
   begin
      id 28
      name RightLeg
      direction 0.000000 -1.000000 0.000000
      length 14.435119
      axis 0.0 0.0 0.0 xyz
      dof rx ry rz
   end
   begin
      id 29
      name RightFoot
      direction 0.000000 -0.258819 0.965926
      length 4.938895
      axis 15.0 0.0 0.0 xyz
      dof rx ry rz
   end
   begin
      id 30
      name RightToeBase
      direction 0.000000 0.000000 1.000000
      length 2.952750
      axis 0.0 0.0 0.0 xyz
      dof rx ry rz
   end
:hierarchy
   begin
      root Spine_dum LeftUpLeg_dum RightUpLeg_dum
      Spine_dum Spine
      LeftUpLeg_dum LeftUpLeg
      RightUpLeg_dum RightUpLeg
      Spine Spine_dum1 Spine_dum2 Spine_dum3
      Spine_dum1 Head
      Spine_dum2 LeftShoulder
      Spine_dum3 RightShoulder
      LeftShoulder LeftArm
      LeftArm LeftForeArm
      LeftForeArm LeftHand
      LeftHand LeftHand_dum1 LeftHand_dum2
      LeftHand_dum1 LeftHandThumb1
      RightShoulder RightArm
      RightArm RightForeArm
      RightForeArm RightHand
      RightHand RightHand_dum1 RightHand_dum2
      RightHand_dum1 RightHandThumb1
      LeftUpLeg LeftLeg
      LeftLeg LeftFoot
      LeftFoot LeftToeBase
      RightUpLeg RightLeg
      RightLeg RightFoot
      RightFoot RightToeBase
   end

# File created by Blade
# Date/Time:  Mon Sep 22 19:00:17 2014
# Frame Rate: 120.000 fps
#------------------------------------------------------
:FULLY-SPECIFIED
:DEGREES
465
root -0.518366 32.760590 -3.487022 39.217064 25.452216 3.254754
Spine -48.029383 14.192168 -18.036500
Head 9.902929 -17.916948 -19.440426
LeftShoulder -8.607093 41.832669 12.875436
LeftArm 71.978065 34.937346 -46.986868
LeftForeArm 11.168607 -0.000000 7.577640
LeftHand -20.035418 -0.000000 -10.008354
LeftHandThumb1 -26.253704 0.000000 33.147579
RightShoulder -14.045471 5.297611 -51.841675
RightArm 113.936863 24.369960 125.697254
RightForeArm 83.216484 -0.000000 132.709804
RightHand 23.630343 -0.000000 0.836858
RightHandThumb1 -24.326973 -0.000000 -32.862282
LeftUpLeg -36.122444 -8.608501 8.117211
LeftLeg -0.964880 -0.000000 0.000000
LeftFoot 1.174729 -7.602063 -3.694265
LeftToeBase 1.871444 -0.000000 -0.000000
RightUpLeg -30.055278 -20.846844 10.916303
RightLeg -3.762405 -0.000000 0.000000
RightFoot -10.971139 -15.214756 20.777928
RightToeBase 14.780959 -0.000000 -0.000000
466
root -0.511729 32.761960 -3.483992 39.197762 25.445716 3.271178
Spine -48.027991 14.170942 -18.016564
Head 9.885297 -17.958496 -19.449987
LeftShoulder -8.610863 41.836950 12.871165
LeftArm 71.982573 34.942576 -46.975039
LeftForeArm 11.160875 -0.000000 7.547907
LeftHand -20.035238 -0.000000 -10.019803
LeftHandThumb1 -26.253704 0.000000 33.147579
RightShoulder -13.941321 5.427108 -51.954512
RightArm 113.697745 24.737686 125.469816
RightForeArm 83.249573 -0.000000 130.816287
RightHand 23.717667 0.000000 0.851521
RightHandThumb1 -24.326973 -0.000000 -32.862282
LeftUpLeg -36.078996 -8.623008 8.091764
LeftLeg -0.982513 -0.000000 0.000000
LeftFoot 1.196980 -7.602902 -3.718368
LeftToeBase 1.890937 -0.000000 -0.000000
RightUpLeg -30.014173 -20.848023 10.870323
RightLeg -3.762811 -0.000000 0.000000
RightFoot -10.972566 -15.222375 20.812129
RightToeBase 14.753544 -0.000000 -0.000000
467
root -0.504630 32.761745 -3.480024 39.185956 25.439740 3.284174
Spine -48.043712 14.156896 -18.007925
Head 9.889147 -18.079660 -19.393677
LeftShoulder -8.592342 41.852475 12.890219
LeftArm 72.006069 34.947807 -46.942047
LeftForeArm 11.134099 -0.000000 7.533269
LeftHand -20.071855 -0.000000 -10.073884
LeftHandThumb1 -26.253704 0.000000 33.147579
RightShoulder -13.807738 5.383245 -52.009986
RightArm 113.684526 24.992286 125.329813
RightForeArm 83.151785 -0.000000 128.827320
RightHand 23.539103 -0.000000 0.909423
RightHandThumb1 -24.326973 -0.000000 -32.862282
LeftUpLeg -36.044717 -8.639089 8.073227
LeftLeg -0.993486 -0.000000 0.000000
LeftFoot 1.194723 -7.611239 -3.741034
LeftToeBase 1.913897 -0.000000 -0.000000
RightUpLeg -29.989947 -20.875251 10.851792
RightLeg -3.761461 -0.000000 0.000000
RightFoot -10.972494 -15.217507 20.779660
RightToeBase 14.782416 -0.000000 -0.000000
468
root -0.500443 32.761797 -3.478259 39.181486 25.432177 3.285105
Spine -48.049952 14.141646 -17.989574
Head 9.848319 -18.197363 -19.324982
LeftShoulder -8.612352 41.825894 12.878514
LeftArm 72.013222 34.965842 -46.916991
LeftForeArm 11.112113 0.000000 7.499461
LeftHand -20.086449 0.000000 -10.109713
LeftHandThumb1 -26.253704 0.000000 33.147579
RightShoulder -13.694177 5.200453 -52.025482
RightArm 113.834752 25.169955 125.213289
RightForeArm 82.691862 0.000000 126.700826
RightHand 23.534754 -0.000000 0.740735
RightHandThumb1 -24.326973 -0.000000 -32.862282
LeftUpLeg -36.030276 -8.645312 8.068458
LeftLeg -1.000099 -0.000000 0.000000
LeftFoot 1.191471 -7.605474 -3.740966
LeftToeBase 1.918625 -0.000000 -0.000000
RightUpLeg -29.933290 -20.790714 10.780212
RightLeg -3.811867 -0.000000 0.000000
RightFoot -10.988919 -15.324380 20.832386
RightToeBase 14.777800 -0.000000 -0.000000
469
root -0.496581 32.762165 -3.476461 39.178936 25.421790 3.288287
Spine -48.058876 14.128475 -17.983440
Head 9.778701 -18.297407 -19.237115
LeftShoulder -8.624922 41.805538 12.872329
LeftArm 72.032612 34.968240 -46.898271
LeftForeArm 11.092753 -0.000000 7.454651
LeftHand -20.097478 -0.000000 -10.205760
LeftHandThumb1 -26.253704 0.000000 33.147579
RightShoulder -13.647231 5.218157 -52.082502
RightArm 113.776383 25.389598 125.004682
RightForeArm 82.258225 -0.000000 124.455009
RightHand 23.368407 -0.000000 0.766860
RightHandThumb1 -24.326973 -0.000000 -32.862282
LeftUpLeg -36.016700 -8.658845 8.072358
LeftLeg -1.010898 -0.000000 0.000000
LeftFoot 1.202221 -7.607491 -3.758296
LeftToeBase 1.919532 -0.000000 -0.000000
RightUpLeg -29.892033 -20.723103 10.717158
RightLeg -3.840451 -0.000000 0.000000
RightFoot -10.989676 -15.377921 20.837575
RightToeBase 14.772843 -0.000000 -0.000000
